<?xml version="1.0" encoding="UTF-8" standalone="no"?>
<svg
   xmlns:svg="http://www.w3.org/2000/svg"
   xmlns="http://www.w3.org/2000/svg"
   version="1.0"
   width="671.45667"
   height="417.04724"
   viewBox="0 0 671.45667 417.04724"
   role="img"
   aria-label="Zurich">
  <defs />
  <g transform="translate(-47.836681,-348.16307)">
    <g transform="translate(17.639488,17.647201)">
      <path
         d="M 336.92429,348.16307 C 280.0003,348.16307 233.78326,394.3801 233.78326,451.30409 C 233.78326,474.87477 241.71721,496.51978 254.96608,513.85115 L 340.69871,401.15863 L 331.45529,401.2356 L 322.28891,401.2356 C 312.50627,401.2356 303.33994,401.92889 296.71547,403.16133 C 292.71001,403.93165 289.16668,405.39519 286.23961,407.47491 C 282.77331,409.86283 278.53676,414.94667 275.68671,419.95354 C 275.37859,420.49276 274.9164,421.41708 274.30021,422.64952 L 269.29334,421.49411 L 277.68947,389.1422 L 385.06705,389.1422 L 299.79661,503.22128 C 305.34264,502.75909 307.49946,502.60503 312.04414,502.60503 C 315.51037,502.60503 320.74834,502.83612 327.7579,503.29825 L 342.93251,504.1456 C 348.40156,504.53076 353.02321,504.68482 356.56654,504.68482 C 364.34642,504.68482 369.43032,504.06857 374.51416,502.528 C 378.44265,501.29555 382.13998,499.52389 385.52924,497.21307 C 391.53746,493.05348 397.31458,486.35204 400.85791,479.72758 C 401.16598,479.03435 401.7052,478.03294 402.32145,476.64644 L 406.94316,477.80185 C 405.47962,483.502 404.63227,485.65876 402.39848,490.74266 C 397.77677,500.9104 392.61584,507.76596 385.52924,513.08089 C 378.21155,518.47286 370.12354,521.1689 360.49497,521.3229 L 359.10846,521.3229 C 352.02186,521.3229 346.47584,520.70671 329.52957,518.08776 C 312.27523,515.46875 303.49394,514.54443 294.78974,514.54443 C 289.01262,514.54443 283.62066,515.00662 277.99754,515.93094 C 270.60281,517.08635 267.67574,517.9337 260.9743,521.01484 C 279.7692,541.58141 306.88321,554.44512 336.92429,554.44512 C 393.92531,554.44512 440.06532,508.30512 440.06532,451.30409 C 440.06532,394.3801 393.92531,348.16307 336.92429,348.16307"
         style="fill:#ffffff;fill-rule:nonzero;stroke:none"/>
      <path
         d="M 142.81267,626.08159 L 63.858571,626.08159 L 54.075991,647.57248 C 57.311131,645.80088 58.620671,645.18462 61.470711,644.10624 C 65.938361,642.33458 70.868131,640.94807 75.720941,640.02369 C 79.803431,639.33047 83.654881,639.02234 89.817161,638.86828 C 92.590171,638.71422 95.209121,638.71422 97.674071,638.71422 L 109.30535,638.71422 L 47.836681,726.60367 L 134.72472,726.60367 L 144.81543,703.64919 C 141.2721,705.65195 140.03965,706.34517 137.4207,707.50058 C 132.3368,709.81147 126.79078,711.5061 121.16772,712.50745 C 116.70007,713.27776 111.61617,713.73989 105.37686,713.89396 C 103.29713,713.97099 100.60115,713.97099 97.365951,713.97099 L 81.960251,713.97099 L 142.81267,626.08159"
         style="fill:#ffffff;fill-rule:nonzero;stroke:none"/>
      <path
         d="M 408.09857,726.60367 C 406.558,725.21717 406.01878,724.60091 405.01743,723.06034 C 404.32415,722.05899 403.86202,720.98061 403.39983,719.9792 C 402.55248,717.66838 402.01332,714.35614 402.01332,711.12094 L 402.01332,650.57659 L 402.09035,644.72243 C 402.16739,638.02099 402.32145,636.1723 403.16873,633.39929 C 403.47686,632.3209 404.01602,631.31949 404.55524,630.31815 C 405.63362,628.54648 406.32691,627.77623 408.4067,626.08159 L 376.13176,626.08159 C 378.21155,627.93023 378.90477,628.62351 379.82915,630.08705 C 380.52238,631.0884 381.0616,632.24387 381.36972,633.32225 C 382.13998,635.78714 382.37107,638.17506 382.4481,644.18327 C 382.4481,647.26441 382.4481,649.26711 382.4481,650.19149 L 382.4481,710.35069 C 382.4481,713.89396 381.83185,717.66838 380.90753,720.13327 C 380.44534,721.13462 379.90618,722.13603 379.28993,723.06034 C 378.51962,724.13872 377.98046,724.75498 376.20879,726.60367 L 408.09857,726.60367"
         style="fill:#ffffff;fill-rule:nonzero;stroke:none"/>
      <path
         d="M 509.00581,627.00591 C 506.54086,626.23566 505.53951,625.92753 502.92056,625.38831 C 497.14338,624.15587 491.52032,623.61664 485.20397,623.61664 C 474.42005,623.61664 465.0996,625.31128 456.54946,628.93164 C 451.54259,631.01137 446.84385,633.78444 442.76136,637.09662 C 430.35977,647.11035 423.65827,661.51464 423.65827,678.22981 C 423.65827,694.32874 430.12868,708.2709 441.99105,717.66838 C 451.77369,725.37123 464.40631,729.29965 479.50388,729.29965 C 488.9784,729.29965 497.83666,727.91315 507.7733,724.75498 C 508.08143,724.67794 508.69768,724.52388 509.3909,724.29279 L 509.3909,706.03704 C 507.00305,707.57761 506.1557,708.11683 504.69216,708.96418 C 502.7665,710.11959 500.6867,711.12094 498.52994,712.04526 C 492.4447,714.58724 486.97564,715.81968 480.96742,715.81968 C 470.56859,715.81968 461.6333,712.12229 455.08586,704.95866 C 448.61552,697.9491 445.07219,688.16646 445.07219,677.15143 C 445.07219,666.59854 448.30739,656.8159 454.16154,650.03743 C 456.62643,647.03332 459.70757,644.56837 463.2509,642.56567 C 468.95099,639.4075 475.49843,637.7899 482.66206,637.7899 C 488.82433,637.7899 494.75552,638.94531 500.76374,641.41026 C 504.46113,642.8738 505.84764,643.64405 509.00581,645.95488 L 509.00581,627.00591"
         style="fill:#ffffff;fill-rule:nonzero;stroke:none"/>
      <path
         d="M 597.12629,681.00283 L 597.12629,705.49788 C 597.12629,710.96688 597.04926,712.89261 596.66411,715.74265 C 596.51004,717.28322 596.12495,718.74676 595.58572,720.05623 C 594.89244,721.90493 593.73703,723.6766 591.96536,725.2942 C 591.6573,725.60226 591.19511,726.06445 590.57886,726.60367 L 622.69973,726.60367 C 621.39026,725.2942 620.85103,724.67794 620.00375,723.4455 C 619.1564,722.36712 618.54021,721.28868 618.15505,720.2103 C 617.1537,717.82244 616.92261,716.05078 616.84558,711.12094 C 616.76855,708.11683 616.76855,706.4222 616.76855,705.88304 L 616.84558,650.57659 L 616.84558,644.6454 C 616.84558,640.25479 617.1537,636.78855 617.92396,634.01548 C 618.30912,632.706 618.84827,631.47356 619.54156,630.31815 C 620.54291,628.62351 621.31322,627.77623 623.46998,626.08159 L 590.73292,626.08159 C 592.58162,627.6992 593.27484,628.39242 594.35328,630.24111 C 595.12354,631.39653 595.66276,632.55194 596.04791,633.70741 C 596.81817,636.09527 597.12629,638.94531 597.12629,644.26031 L 597.12629,668.67827 L 552.06467,668.67827 L 552.06467,650.34555 C 552.06467,644.79947 552.1417,641.17917 552.3728,638.40615 C 552.44983,636.78855 552.75789,635.32501 553.14305,634.09251 C 553.83634,631.85872 555.68497,628.93164 557.30257,627.15997 C 557.53367,626.92888 557.91882,626.62075 558.45805,626.08159 L 526.26014,626.08159 C 528.18587,628.08429 528.648,628.70054 529.57238,630.01002 C 530.2656,631.01137 530.80482,632.16684 531.26701,633.39929 C 532.11429,635.9412 532.26836,637.32771 532.34539,644.02921 L 532.42242,650.34555 L 532.42242,705.34382 C 532.42242,710.96688 532.34539,713.43183 532.03726,715.97375 C 531.8832,717.28322 531.57513,718.5927 531.03591,719.90217 C 530.2656,722.13603 529.03315,723.83066 527.18446,725.60226 C 526.95342,725.83336 526.56827,726.14148 526.10608,726.60367 L 557.91882,726.60367 C 556.53232,725.14013 555.9931,724.52388 555.22284,723.29144 C 554.60659,722.29009 554.06743,721.28868 553.60524,720.13327 C 552.60389,717.51432 552.21873,715.58859 552.1417,711.35204 C 552.06467,709.19521 552.06467,707.19252 552.06467,705.34382 L 552.06467,681.00283 L 597.12629,681.00283"
         style="fill:#ffffff;fill-rule:nonzero;stroke:none"/>
      <path
         d="M 303.80207,674.91758 C 305.26561,674.91758 306.96024,674.76352 309.04003,674.45539 C 314.43199,673.68514 318.12939,672.45269 321.67265,670.3729 C 323.59838,669.21749 325.13895,667.98505 326.3714,666.59854 C 328.99035,663.67146 330.29988,659.82001 330.29988,655.27533 C 330.29988,650.03743 328.52822,645.80088 325.13895,642.8738 C 323.21322,641.2562 320.82537,640.02369 318.36048,639.25344 C 314.50903,638.17506 309.73325,637.63584 304.80348,637.63584 C 303.95613,637.63584 303.41691,637.63584 302.18447,637.63584 L 302.18447,674.84055 C 302.95478,674.91758 303.26291,674.91758 303.80207,674.91758 z M 302.18447,705.96007 C 302.18447,707.73168 302.18447,709.42631 302.18447,710.96688 C 302.2615,715.58859 302.64666,718.05348 303.49394,720.28733 C 303.95613,721.28868 304.49535,722.36712 305.26561,723.29144 C 306.11295,724.52388 306.57508,725.0631 308.03862,726.60367 L 276.07187,726.60367 C 277.92051,724.90904 278.53676,724.29279 279.38404,723.06034 C 280.15436,722.13603 280.69358,721.05758 281.15571,719.90217 C 282.00306,717.66838 282.31118,714.9724 282.31118,710.19662 L 282.31118,644.26031 C 282.31118,638.94531 282.00306,635.78714 281.30977,633.55335 C 280.92461,632.24387 280.30842,631.01137 279.53811,629.93299 C 278.61379,628.46945 277.99754,627.6992 276.1489,626.08159 L 302.10743,626.08159 C 305.34264,626.08159 308.42378,626.15863 311.42789,626.23566 C 319.43886,626.46669 324.1376,626.92888 328.60525,628.00726 C 335.07559,629.4708 340.85278,632.706 344.93527,637.01958 C 349.47994,641.71833 351.71374,647.34145 351.71374,653.50366 C 351.71374,656.12268 351.32864,658.66459 350.48129,661.20651 C 349.01775,665.75119 346.55287,669.37155 342.62438,672.68379 C 339.08111,675.61086 335.22966,677.84466 330.22285,679.84742 C 328.45119,680.54064 327.68087,680.84876 325.7552,681.38799 L 341.39194,699.79779 C 343.24063,702.03159 345.70552,704.72757 348.70963,707.96277 C 353.40837,713.04667 356.56654,716.28187 360.03284,719.59405 C 361.57341,721.05758 363.03695,722.36712 364.42345,723.59956 C 365.73293,724.67794 366.34918,725.21717 368.04375,726.60367 L 355.48816,726.60367 C 353.56243,726.60367 351.8678,726.60367 350.2502,726.52664 C 345.85958,726.37258 343.1636,725.67929 340.23652,724.13872 C 336.84726,722.36712 333.45799,719.59405 329.83769,715.89671 C 328.75931,714.81833 327.14171,712.96964 324.98489,710.50469 C 323.05916,708.34793 321.67265,706.73033 320.82537,705.65195 L 302.18447,683.31371 L 302.18447,705.96007"
         style="fill:#ffffff;fill-rule:nonzero;stroke:none"/>
      <path
         d="M 259.74185,626.15863 L 227.69801,626.15863 C 229.62374,627.6992 230.31696,628.39242 231.31837,630.01002 C 232.0116,631.0884 232.47379,632.24387 232.85888,633.39929 C 233.47513,635.86417 233.70623,638.25209 233.70623,643.95218 L 233.70623,682.15824 C 233.70623,690.40031 233.47513,695.17608 232.85888,699.18154 C 232.47379,701.87752 231.54941,704.34247 230.23993,706.57626 C 227.85208,710.65875 223.3074,713.81692 217.91537,715.20343 C 215.75861,715.74265 213.37069,715.97375 210.75174,715.97375 C 202.12458,715.97375 194.72985,712.73854 191.18652,707.50058 C 188.41351,703.34106 187.56623,699.48967 187.48919,689.16787 L 187.41216,680.84876 L 187.41216,650.57659 C 187.41216,644.72243 187.48919,641.87239 187.64326,638.86828 C 187.79726,637.09662 188.02835,635.55605 188.41351,634.3236 C 189.1068,632.01278 190.80137,628.93164 192.496,627.00591 C 192.65006,626.85185 192.88116,626.54372 193.26632,626.15863 L 160.60628,626.15863 C 162.60898,627.77623 163.30227,628.54648 164.22658,630.24111 C 164.91987,631.31949 165.38199,632.47491 165.69012,633.70741 C 166.07528,635.24798 166.30637,636.78855 166.30637,638.32912 C 166.3834,639.33047 166.3834,641.41026 166.3834,644.56837 L 166.46044,650.34555 L 166.46044,679.15413 C 166.46044,689.86109 166.46044,692.55707 166.84553,696.87072 C 167.46179,704.18841 169.69564,710.04256 173.93219,715.35749 C 181.48098,724.90904 193.72851,729.91591 209.36524,729.91591 C 216.83699,729.91591 224.00062,728.76043 229.54671,726.75774 C 235.32383,724.60091 240.63876,721.05758 244.49022,716.744 C 249.11193,711.58313 251.80791,705.18976 252.57816,697.25581 C 253.11739,692.6341 253.27145,687.24214 253.27145,679.30819 L 253.27145,650.42259 L 253.19442,644.72243 L 253.19442,643.56702 C 253.19442,639.25344 253.42551,636.71152 254.0417,634.40063 C 254.42686,632.9371 254.96608,631.55059 255.81337,630.31815 C 256.89175,628.62351 257.58503,627.85326 259.74185,626.15863"
         style="fill:#ffffff;fill-rule:nonzero;stroke:none"/>
      <path
         d="M 658.28687,593.49853 L 660.98287,593.49853 C 663.90987,593.49853 667.29917,592.42015 667.29917,588.87682 C 667.29917,584.7173 664.29507,584.48621 660.90577,584.48621 L 658.28687,584.48621 L 658.28687,593.49853 z M 655.82197,582.32945 L 662.36937,582.32945 C 666.83697,582.32945 669.76407,584.25517 669.76407,588.87682 C 669.76407,592.11202 667.29917,594.34588 664.14097,594.73104 L 664.14097,594.80807 C 666.14377,595.0391 667.22217,596.11754 667.99247,597.88915 L 672.30607,607.67179 L 669.53297,607.67179 L 665.91267,599.04462 C 664.44907,595.80942 662.75447,595.73238 660.36667,595.73238 L 658.28687,595.73238 L 658.28687,607.67179 L 655.82197,607.67179 L 655.82197,582.32945"
         style="fill:#ffffff;fill-rule:nonzero;stroke:none"/>
      <path
         d="M 663.21667,613.29484 C 653.04897,613.29484 644.80687,605.05284 644.80687,594.96207 C 644.80687,584.79433 653.04897,576.47529 663.21667,576.47529 C 673.38437,576.47529 681.62647,584.79433 681.62647,594.96207 C 681.62647,605.05284 673.38437,613.29484 663.21667,613.29484 z M 663.21667,574.16441 C 651.81647,574.16441 642.41901,583.48486 642.41901,594.96207 C 642.41901,606.36231 651.81647,615.68276 663.21667,615.68276 C 674.69387,615.68276 684.01437,606.36231 684.01437,594.96207 C 684.01437,583.48486 674.69387,574.16441 663.21667,574.16441"
         style="fill:#ffffff;fill-rule:nonzero;stroke:none"/>
    </g>
  </g>
</svg>
